<?xml version="1.0" encoding="utf-8"?>
<svg viewBox="0 0 50 50" style="" xmlns="http://www.w3.org/2000/svg">
  <g>
    <path d="M 50 25 C 50 38.24 39.708 49.076 26.687 49.944 L 37.687 26.356 C 37.764 26.191 37.809 26.019 37.823 25.847 C 37.936 25.635 38 25.393 38.001 25.137 L 37.999 16.158 C 38 15.324 37.324 14.648 36.49 14.647 L 35.682 14.648 L 32.995 10 L 30.307 14.647 L 19.702 14.647 L 16.995 10 L 14.287 14.648 L 13.51 14.648 C 12.676 14.648 12 15.324 12 16.158 L 12 25.138 C 12 25.971 12.676 26.647 13.51 26.648 L 24.311 26.647 L 14.497 47.693 C 5.937 43.725 0 35.056 0 25 C 0 11.193 11.193 0 25 0 C 38.807 0 50 11.193 50 25 Z" style="stroke: rgb(0, 0, 0); stroke-width: 0px; fill: rgb(255, 255, 255);"/>
  </g>
</svg>